<svg xmlns="http://www.w3.org/2000/svg" viewBox="0 0 800 800" role="img" aria-label="Harivanga mango illustration">
  <defs>
    <linearGradient id="bg" x1="0" x2="1" y1="0" y2="1">
      <stop offset="0%" stop-color="#fff7ed"/>
      <stop offset="100%" stop-color="#ffedd5"/>
    </linearGradient>
    <linearGradient id="fruit" x1="0" x2="1" y1="0" y2="1">
      <stop offset="0%" stop-color="#fde047"/>
      <stop offset="55%" stop-color="#f59e0b"/>
      <stop offset="100%" stop-color="#ea580c"/>
    </linearGradient>
  </defs>
  <rect width="800" height="800" rx="48" fill="url(#bg)"/>
  <path d="M248 273c84-116 237-101 306 4 61 93 16 247-148 302-146 48-246-35-272-129-18-62 4-124 57-181 17-18 35-34 57-46Z" fill="url(#fruit)"/>
  <path d="M395 181c30-39 64-59 102-62 35-2 63 10 86 38-62-8-117 10-188 55Z" fill="#166534"/>
  <ellipse cx="347" cy="421" rx="74" ry="120" fill="#fff7ed" opacity="0.18"/>
</svg>
