<svg xmlns="http://www.w3.org/2000/svg" viewBox="0 0 800 800" role="img" aria-label="Green mango illustration">
  <defs>
    <linearGradient id="bg" x1="0" x2="1" y1="0" y2="1">
      <stop offset="0%" stop-color="#f7fee7"/>
      <stop offset="100%" stop-color="#dcfce7"/>
    </linearGradient>
    <linearGradient id="fruit" x1="0" x2="1" y1="0" y2="1">
      <stop offset="0%" stop-color="#bef264"/>
      <stop offset="55%" stop-color="#65a30d"/>
      <stop offset="100%" stop-color="#3f6212"/>
    </linearGradient>
  </defs>
  <rect width="800" height="800" rx="48" fill="url(#bg)"/>
  <path d="M229 291c80-106 223-93 286 1 56 83 16 222-133 280-131 51-232-23-262-121-19-60 2-121 55-170 16-15 34-28 54-40Z" fill="url(#fruit)"/>
  <path d="M391 181c25-33 54-50 88-53 30-2 54 8 76 31-54-6-108 11-164 49Z" fill="#166534"/>
  <ellipse cx="328" cy="432" rx="70" ry="118" fill="#f7fee7" opacity="0.14"/>
</svg>
