<svg xmlns="http://www.w3.org/2000/svg" viewBox="0 0 800 800" role="img" aria-label="Mixed mango box illustration">
  <defs>
    <linearGradient id="bg" x1="0" x2="1" y1="0" y2="1">
      <stop offset="0%" stop-color="#eff6ff"/>
      <stop offset="100%" stop-color="#fef3c7"/>
    </linearGradient>
  </defs>
  <rect width="800" height="800" rx="48" fill="url(#bg)"/>
  <rect x="170" y="290" width="460" height="260" rx="32" fill="#8b5a2b"/>
  <rect x="200" y="260" width="400" height="64" rx="24" fill="#a16207"/>
  <ellipse cx="290" cy="400" rx="74" ry="102" fill="#65a30d"/>
  <ellipse cx="400" cy="380" rx="84" ry="114" fill="#f59e0b"/>
  <ellipse cx="515" cy="410" rx="78" ry="106" fill="#f97316"/>
  <path d="M275 294c15-20 34-31 57-33 19-2 36 5 50 18-31-1-59 8-88 29Z" fill="#166534"/>
  <path d="M385 260c18-24 38-37 61-38 21-1 40 7 55 22-35-2-66 9-101 32Z" fill="#166534"/>
  <path d="M500 295c16-22 35-33 57-35 21-1 38 6 52 20-30 0-58 10-88 31Z" fill="#166534"/>
</svg>
