<svg xmlns="http://www.w3.org/2000/svg" viewBox="0 0 900 900" role="img" aria-labelledby="title desc">
  <title id="title">Orchard illustration</title>
  <desc id="desc">Stylized orchard scene with warm sunset colors and mango leaves.</desc>
  <defs>
    <linearGradient id="sky" x1="0" x2="1" y1="0" y2="1">
      <stop offset="0%" stop-color="#fef3c7"/>
      <stop offset="55%" stop-color="#fdba74"/>
      <stop offset="100%" stop-color="#78350f"/>
    </linearGradient>
    <linearGradient id="field" x1="0" x2="0" y1="0" y2="1">
      <stop offset="0%" stop-color="#65a30d"/>
      <stop offset="100%" stop-color="#14532d"/>
    </linearGradient>
  </defs>
  <rect width="900" height="900" fill="url(#sky)"/>
  <circle cx="660" cy="200" r="100" fill="#fde68a" opacity="0.9"/>
  <path d="M0 620c92-55 177-79 270-71 112 10 198 70 279 94 89 26 173 7 238-33 48-29 77-34 113-32v322H0Z" fill="url(#field)"/>
  <path d="M0 710c94-31 188-47 287-31 120 19 195 74 294 91 121 21 238-19 319-74v184H0Z" fill="#166534"/>
  <g>
    <rect x="195" y="357" width="28" height="270" rx="14" fill="#6b3f1d"/>
    <circle cx="209" cy="318" r="95" fill="#2f6b2f"/>
    <circle cx="145" cy="332" r="66" fill="#3d7e34"/>
    <circle cx="264" cy="347" r="72" fill="#3d7e34"/>
  </g>
  <g>
    <rect x="596" y="387" width="28" height="240" rx="14" fill="#6b3f1d"/>
    <circle cx="610" cy="342" r="88" fill="#2f6b2f"/>
    <circle cx="552" cy="357" r="60" fill="#3d7e34"/>
    <circle cx="668" cy="365" r="64" fill="#3d7e34"/>
  </g>
  <g opacity="0.9">
    <ellipse cx="250" cy="330" rx="28" ry="38" fill="#f59e0b"/>
    <ellipse cx="630" cy="360" rx="28" ry="38" fill="#fbbf24"/>
    <ellipse cx="568" cy="322" rx="24" ry="34" fill="#f59e0b"/>
  </g>
</svg>
