<svg xmlns="http://www.w3.org/2000/svg" viewBox="0 0 800 800" role="img" aria-label="Mango pattern illustration">
  <defs>
    <linearGradient id="bg" x1="0" x2="1" y1="0" y2="1">
      <stop offset="0%" stop-color="#1f2937"/>
      <stop offset="100%" stop-color="#0f172a"/>
    </linearGradient>
    <linearGradient id="fruit" x1="0" x2="1" y1="0" y2="1">
      <stop offset="0%" stop-color="#fcd34d"/>
      <stop offset="100%" stop-color="#f97316"/>
    </linearGradient>
  </defs>
  <rect width="800" height="800" fill="url(#bg)"/>
  <g opacity="0.55">
    <path d="M180 180c38-50 103-45 134 3 25 38 9 100-60 130-61 26-111-6-124-46-11-34 0-68 27-87 8-7 15-12 23-17Z" fill="url(#fruit)"/>
    <path d="M480 120c46-59 123-52 156 5 29 46 8 119-75 151-74 28-129-12-142-57-10-36 1-72 31-99 9-8 18-14 30-20Z" fill="#fde68a"/>
    <path d="M586 468c51-65 131-56 170 6 32 51 10 133-82 170-82 33-146-12-162-66-11-42 2-84 35-117 11-10 22-18 39-26Z" fill="url(#fruit)"/>
    <path d="M172 498c45-57 113-48 145 8 27 46 7 114-71 145-71 28-128-8-144-54-11-35 1-73 30-99 10-9 20-16 40-23Z" fill="#fbbf24"/>
  </g>
</svg>
